<svg width="64" height="64" viewBox="0 0 64 64" fill="none" xmlns="http://www.w3.org/2000/svg">
<rect x="1" y="1" width="62" height="62" stroke="#1C1C1C" stroke-width="2"/>
<path d="M31.796 40.336C30.532 40.336 29.412 40.112 28.436 39.664C27.46 39.216 26.692 38.576 26.132 37.744C25.588 36.896 25.316 35.896 25.316 34.744V34.312H28.388V34.648C28.388 35.544 28.7 36.264 29.324 36.808C29.948 37.336 30.772 37.6 31.796 37.6C32.836 37.6 33.636 37.352 34.196 36.856C34.772 36.36 35.06 35.736 35.06 34.984V34.744C35.06 34.232 34.932 33.816 34.676 33.496C34.42 33.176 34.076 32.944 33.644 32.8C33.212 32.64 32.724 32.56 32.18 32.56H28.82V29.2L34.244 26.32V25.936H25.748V23.2H37.652V27.28L32.588 29.968V30.352H33.476C34.228 30.352 34.956 30.504 35.66 30.808C36.38 31.112 36.972 31.584 37.436 32.224C37.9 32.848 38.132 33.664 38.132 34.672V34.96C38.132 36.048 37.868 37 37.34 37.816C36.812 38.616 36.068 39.24 35.108 39.688C34.164 40.12 33.06 40.336 31.796 40.336Z" fill="black"/>
</svg>
