<svg width="220" height="40" viewBox="0 0 220 40" fill="none" xmlns="http://www.w3.org/2000/svg">
<path d="M53.9603 17.8737V6.08128H49.5709V3.68016H61.5336V6.08128H57.1441V17.8737H53.9603Z" fill="white"/>
<path d="M63.5471 17.8736V3.68008H66.7426V17.8736H63.5471Z" fill="white"/>
<path d="M69.6219 17.8736V3.68008H75.2404L77.9911 15.4725H78.67L81.4207 3.68008H87.0392V17.8736H84.0778V6.1934H83.5862L80.894 17.8736H75.615L72.9228 6.1934H72.4312V17.8736H69.6219Z" fill="white"/>
<path d="M89.9303 17.8736V3.68008H95.5488L98.2995 15.4725H98.9784L101.729 3.68008H107.348V17.8736H104.386V6.1934H103.895L101.202 17.8736H95.9233L93.2311 6.1934H92.7395V17.8736H89.9303Z" fill="white"/>
<path d="M110.239 17.8736V3.68008H120.34V6.0812H113.387V9.21163H118.736V11.4332H113.387V15.4725H120.445V17.8736H110.227H110.239Z" fill="white"/>
<path d="M122.775 17.8736V3.68008H129.06C130.325 3.68008 131.355 3.84838 132.151 4.19621C132.935 4.54403 133.52 5.01528 133.895 5.60995C134.269 6.21584 134.456 6.90027 134.456 7.69691C134.456 8.59452 134.211 9.36872 133.719 10.0307C133.227 10.6815 132.502 11.1527 131.542 11.4332L134.866 17.7614V17.8736H131.483L128.463 11.8708H125.935V17.8736H122.786H122.775ZM125.923 9.64922H128.604C129.423 9.64922 130.067 9.51458 130.535 9.24529C131.003 8.97601 131.226 8.49354 131.226 7.80911C131.226 7.12468 130.992 6.61977 130.524 6.3617C130.055 6.10364 129.412 5.969 128.604 5.969H125.923V9.64922Z" fill="white"/>
<path d="M136.634 17.8736V3.68008H146.396V6.0812H139.794V9.30139H144.804V11.523H139.794V17.8736H136.645H136.634Z" fill="white"/>
<path d="M145.214 17.8736V17.7614L149.674 3.68008H154.672L159.155 17.7614V17.8736H155.889L152.295 6.04754H151.839L148.21 17.8736H145.214ZM148.913 14.3168L149.58 12.0279H154.555L155.222 14.3168H148.924H148.913Z" fill="white"/>
<path d="M160.734 17.8736V3.68008H166.54C168.39 3.68008 169.724 4.00546 170.543 4.64501C171.363 5.28456 171.772 6.14852 171.772 7.2481C171.772 7.95497 171.597 8.5272 171.246 8.95357C170.895 9.39116 170.356 9.71654 169.63 9.91851V10.3561C170.59 10.5581 171.328 10.9283 171.819 11.4445C172.323 11.9718 172.568 12.7236 172.568 13.7222C172.568 14.9676 172.147 15.9774 171.293 16.7292C170.438 17.4809 169.033 17.8624 167.067 17.8624H160.723L160.734 17.8736ZM163.778 9.39116H166.318C167.044 9.39116 167.617 9.24529 168.038 8.96479C168.46 8.68428 168.671 8.23548 168.671 7.62959C168.671 6.45147 167.886 5.86801 166.318 5.86801H163.778V9.40238V9.39116ZM163.778 15.6857H166.657C167.617 15.6857 168.319 15.5062 168.741 15.1359C169.174 14.7656 169.385 14.2607 169.385 13.6212C169.385 12.9031 169.139 12.3757 168.659 12.0503C168.179 11.7137 167.5 11.5454 166.646 11.5454H163.766V15.6969L163.778 15.6857Z" fill="white"/>
<path d="M174.594 17.8736V3.68008H180.879C182.143 3.68008 183.173 3.84838 183.969 4.19621C184.754 4.54403 185.339 5.01528 185.713 5.60995C186.088 6.21584 186.275 6.90027 186.275 7.69691C186.275 8.59452 186.029 9.36872 185.538 10.0307C185.046 10.6815 184.32 11.1527 183.361 11.4332L186.685 17.7614V17.8736H183.302L180.282 11.8708H177.754V17.8736H174.605H174.594ZM177.742 9.64922H180.423C181.242 9.64922 181.886 9.51458 182.354 9.24529C182.81 8.97601 183.045 8.49354 183.045 7.80911C183.045 7.12468 182.81 6.61977 182.342 6.3617C181.874 6.10364 181.23 5.969 180.423 5.969H177.742V9.64922Z" fill="white"/>
<path d="M188.452 17.8736V3.68008H191.648V17.8736H188.452Z" fill="white"/>
<path d="M194.527 17.8736V3.68008H204.629V6.0812H197.676V9.21163H203.025V11.4332H197.676V15.4725H204.734V17.8736H194.515H194.527Z" fill="white"/>
<path d="M207.052 17.8736V3.68008H210.165V9.14431H211.3L215.549 3.68008H219.084V3.79228L213.958 10.199L219.915 17.7726V17.8848H216.123L211.3 11.5567H210.165V17.8848H207.052V17.8736Z" fill="white"/>
<path d="M55.8918 36.3309C54.7447 36.3309 53.7732 36.185 52.9772 35.882C52.193 35.5903 51.5492 35.1976 51.0576 34.7039C50.566 34.2102 50.2148 33.6941 49.9807 33.1107C49.7466 32.5384 49.6062 31.9662 49.571 31.4052H52.5324C52.5559 31.8428 52.6963 32.2579 52.9538 32.6619C53.2113 33.0658 53.5859 33.3912 54.0892 33.6492C54.5925 33.9073 55.2246 34.0307 55.9855 34.0307C56.8048 34.0307 57.4135 33.8736 57.8115 33.5482C58.2094 33.2229 58.4084 32.8077 58.4084 32.2804C58.4084 31.753 58.2328 31.3828 57.8817 31.0574C57.5305 30.7432 57.074 30.4964 56.5005 30.3056L54.3584 29.61C53.6795 29.3968 53.0241 29.1275 52.392 28.8021C51.7599 28.4767 51.2449 28.0504 50.8469 27.523C50.4372 26.9957 50.2382 26.3224 50.2382 25.4921C50.2382 24.6619 50.4606 23.9213 50.9054 23.3491C51.3502 22.7656 51.9706 22.3281 52.7665 22.0251C53.5508 21.7222 54.4638 21.5651 55.4938 21.5651C56.8048 21.5651 57.8466 21.7783 58.6074 22.2046C59.3682 22.631 59.9184 23.1696 60.2695 23.8091C60.6207 24.4599 60.8314 25.1331 60.9016 25.84H57.9402C57.9168 25.5034 57.8232 25.178 57.6476 24.8638C57.472 24.5497 57.2028 24.3028 56.8399 24.1121C56.4771 23.9213 55.9855 23.8203 55.3651 23.8203C54.6628 23.8203 54.1477 23.9662 53.82 24.2355C53.4806 24.516 53.3167 24.8638 53.3167 25.2902C53.3167 25.7502 53.4923 26.1205 53.8434 26.401C54.1946 26.6815 54.6628 26.9171 55.2363 27.1079L57.3784 27.8035C58.069 28.0167 58.7362 28.2972 59.3565 28.6226C59.9769 28.948 60.4802 29.3856 60.8899 29.9241C61.2879 30.4627 61.4869 31.1696 61.4869 32.0447C61.4869 33.3687 60.9952 34.4122 60.012 35.164C59.0288 35.9157 57.6593 36.2972 55.8801 36.2972L55.8918 36.3309Z" fill="white"/>
<path d="M63.7343 36.0505V21.857H66.9298V36.0505H63.7343Z" fill="white"/>
<path d="M69.8094 36.0505V21.857H75.3108L79.8992 33.6494H80.3557V21.857H83.2352V36.0505H77.687L73.1103 24.2581H72.6772V36.0505H69.786H69.8094Z" fill="white"/>
<path d="M89.6496 36.0505V24.2581H85.2601V21.857H97.2228V24.2581H92.8333V36.0505H89.6496Z" fill="white"/>
<path d="M103.789 36.0505V21.857H109.29L113.879 33.6494H114.335V21.857H117.215V36.0505H111.667L107.09 24.2581H106.657V36.0505H103.766H103.789Z" fill="white"/>
<path d="M123.536 36.0505V30.1599L118.807 21.9692V21.857H122.237L124.098 25.1333C124.273 25.4362 124.449 25.7504 124.625 26.0645C124.8 26.3899 124.964 26.749 125.128 27.1641H125.502C125.678 26.749 125.854 26.3787 126.029 26.0645C126.205 25.7392 126.369 25.4362 126.533 25.1333L128.335 21.857H131.449V21.9692L126.72 30.1936V36.0505H123.524H123.536Z" fill="white"/>
<path d="M133.029 36.0505V21.857H136.142V27.3212H137.278L141.527 21.857H145.062V21.9692L139.935 28.3759L145.893 35.9495V36.0617H142.1L137.278 29.7335H136.142V36.0617H133.029V36.0505Z" fill="white"/>
<path d="M40 9.69425V40H24.5204V32.5049H32.4958V12.8022L27.2013 7.50631H11.2955V0H30.3084L32.4958 2.17672L37.8014 7.50631L40 9.69425Z" fill="white"/>
<path d="M20.774 32.5049V40H9.69153L7.50421 37.8233L2.19854 32.5049L0 30.3057V0H7.50421V27.1978L12.7987 32.5049H20.774Z" fill="white"/>
</svg>
