<svg width="16" height="16" viewBox="0 0 16 16" fill="none" xmlns="http://www.w3.org/2000/svg">
<path d="M1.33337 4.6665L6.77664 8.47677C7.21744 8.78537 7.43784 8.93964 7.67757 8.99937C7.88931 9.05217 8.11077 9.05217 8.32251 8.99937C8.56224 8.93964 8.78264 8.78537 9.22344 8.47677L14.6667 4.6665M4.53337 13.3332H11.4667C12.5868 13.3332 13.1468 13.3332 13.5747 13.1152C13.951 12.9234 14.257 12.6175 14.4487 12.2412C14.6667 11.8133 14.6667 11.2533 14.6667 10.1332V5.8665C14.6667 4.7464 14.6667 4.18634 14.4487 3.75852C14.257 3.3822 13.951 3.07624 13.5747 2.88449C13.1468 2.6665 12.5868 2.6665 11.4667 2.6665H4.53337C3.41327 2.6665 2.85321 2.6665 2.42539 2.88449C2.04907 3.07624 1.74311 3.3822 1.55136 3.75852C1.33337 4.18634 1.33337 4.7464 1.33337 5.8665V10.1332C1.33337 11.2533 1.33337 11.8133 1.55136 12.2412C1.74311 12.6175 2.04907 12.9234 2.42539 13.1152C2.85321 13.3332 3.41327 13.3332 4.53337 13.3332Z" stroke="white" stroke-linecap="round" stroke-linejoin="round"/>
</svg>
