<svg width="16" height="16" viewBox="0 0 16 16" fill="none" xmlns="http://www.w3.org/2000/svg">
<path d="M5.58685 5.90223C6.05084 6.86867 6.6834 7.7744 7.4844 8.57547C8.28546 9.37653 9.19126 10.0091 10.1577 10.4731C10.2408 10.5129 10.2823 10.5329 10.3349 10.5483C10.5219 10.6027 10.7513 10.5636 10.9096 10.4503C10.9542 10.4183 10.9923 10.3803 11.0685 10.3041C11.3015 10.0709 11.4181 9.9544 11.5353 9.87827C11.9772 9.59093 12.5469 9.59093 12.9889 9.87827C13.1061 9.9544 13.2226 10.0709 13.4557 10.3041L13.5855 10.4339C13.9399 10.7883 14.117 10.9654 14.2132 11.1557C14.4046 11.534 14.4046 11.9809 14.2132 12.3593C14.117 12.5495 13.9399 12.7267 13.5855 13.0809L13.4805 13.186C13.1274 13.5391 12.9509 13.7157 12.7108 13.8505C12.4445 14.0001 12.0308 14.1077 11.7253 14.1067C11.4501 14.1059 11.2619 14.0525 10.8856 13.9457C8.86333 13.3717 6.95506 12.2888 5.3631 10.6968C3.77112 9.1048 2.68814 7.19653 2.11416 5.17429C2.00735 4.79799 1.95394 4.60985 1.95313 4.33455C1.95222 4.02907 2.05979 3.61541 2.2094 3.34907C2.34424 3.10905 2.52078 2.93251 2.87386 2.57942L2.97895 2.47433C3.33324 2.12004 3.5104 1.94289 3.70065 1.84666C4.07902 1.65528 4.52586 1.65528 4.90424 1.84666C5.09449 1.94289 5.27164 2.12004 5.62594 2.47433L5.75585 2.60425C5.98892 2.83731 6.10546 2.95385 6.18164 3.07103C6.46898 3.51297 6.46898 4.08269 6.18164 4.52461C6.10546 4.64179 5.98892 4.75833 5.75585 4.9914C5.67964 5.06761 5.64154 5.10571 5.60964 5.15025C5.4963 5.30854 5.45717 5.53805 5.51165 5.72495C5.52698 5.77755 5.54694 5.81911 5.58685 5.90223Z" stroke="white" stroke-linecap="round" stroke-linejoin="round"/>
</svg>
