<svg width="64" height="64" viewBox="0 0 64 64" fill="none" xmlns="http://www.w3.org/2000/svg">
<rect x="1" y="1" width="62" height="62" stroke="#1C1C1C" stroke-width="2"/>
<path d="M25.508 40V37.984C25.508 36.816 25.7 35.848 26.084 35.08C26.468 34.296 27.02 33.656 27.74 33.16C28.476 32.648 29.372 32.232 30.428 31.912L32.036 31.408C32.628 31.216 33.124 30.984 33.524 30.712C33.924 30.424 34.228 30.08 34.436 29.68C34.66 29.28 34.772 28.824 34.772 28.312V28.216C34.772 27.416 34.5 26.784 33.956 26.32C33.412 25.84 32.668 25.6 31.724 25.6C30.796 25.6 30.044 25.856 29.468 26.368C28.908 26.864 28.628 27.584 28.628 28.528V28.96H25.556V28.576C25.556 27.36 25.828 26.328 26.372 25.48C26.916 24.632 27.652 23.984 28.58 23.536C29.524 23.088 30.572 22.864 31.724 22.864C32.876 22.864 33.916 23.088 34.844 23.536C35.772 23.968 36.5 24.584 37.028 25.384C37.572 26.168 37.844 27.096 37.844 28.168V28.408C37.844 29.48 37.62 30.392 37.172 31.144C36.74 31.88 36.148 32.488 35.396 32.968C34.644 33.432 33.788 33.816 32.828 34.12L31.292 34.6C30.604 34.808 30.068 35.04 29.684 35.296C29.3 35.536 29.028 35.808 28.868 36.112C28.724 36.4 28.652 36.752 28.652 37.168V37.264H37.7V40H25.508Z" fill="black"/>
</svg>
